<?xml version="1.0" encoding="UTF-8" standalone="no"?>
<!-- Created with Inkscape (http://www.inkscape.org/) -->

<svg
   xmlns:dc="http://purl.org/dc/elements/1.1/"
   xmlns:cc="http://creativecommons.org/ns#"
   xmlns:rdf="http://www.w3.org/1999/02/22-rdf-syntax-ns#"
   xmlns:svg="http://www.w3.org/2000/svg"
   xmlns="http://www.w3.org/2000/svg"
   xmlns:sodipodi="http://sodipodi.sourceforge.net/DTD/sodipodi-0.dtd"
   xmlns:inkscape="http://www.inkscape.org/namespaces/inkscape"
   id="svg4136"
   version="1.1"
   inkscape:version="0.91 r13725"
   xml:space="preserve"
   width="990"
   height="765"
   viewBox="0 0 990 765"
   sodipodi:docname="5x5x5 solder helper.svg"><metadata
     id="metadata4142"><rdf:RDF><cc:Work
         rdf:about=""><dc:format>image/svg+xml</dc:format><dc:type
           rdf:resource="http://purl.org/dc/dcmitype/StillImage" /><dc:title></dc:title></cc:Work></rdf:RDF></metadata><defs
     id="defs4140"><clipPath
       clipPathUnits="userSpaceOnUse"
       id="clipPath4150"><path
         d="M 0,0 0,918 1188,918 1188,0 0,0"
         id="path4152"
         inkscape:connector-curvature="0" /></clipPath></defs><sodipodi:namedview
     pagecolor="#ffffff"
     bordercolor="#666666"
     borderopacity="1"
     objecttolerance="10"
     gridtolerance="10"
     guidetolerance="10"
     inkscape:pageopacity="0"
     inkscape:pageshadow="2"
     inkscape:window-width="1280"
     inkscape:window-height="740"
     id="namedview4138"
     showgrid="false"
     inkscape:zoom="0.73856209"
     inkscape:cx="495"
     inkscape:cy="382.5"
     inkscape:window-x="-8"
     inkscape:window-y="-8"
     inkscape:window-maximized="1"
     inkscape:current-layer="g4144" /><g
     id="g4144"
     inkscape:groupmode="layer"
     inkscape:label="5x5x5 solder helper"
     transform="matrix(1.25,0,0,-1.25,0,765)"><path
       inkscape:connector-curvature="0"
       id="path4156"
       style="fill:none;stroke:#000000;stroke-width:0.4;stroke-linecap:round;stroke-linejoin:round;stroke-miterlimit:10;stroke-dasharray:none;stroke-opacity:1"
       d="m 566.09997,461.96732 c 0.001,7.80325 -6.32271,14.13045 -14.12597,14.13268" /><path
       inkscape:connector-curvature="0"
       id="path4160"
       style="fill:none;stroke:#000000;stroke-width:0.4;stroke-linecap:round;stroke-linejoin:round;stroke-miterlimit:10;stroke-dasharray:none;stroke-opacity:1"
       d="m 551.96856,135.9 c 7.80325,-7.8e-4 14.12988,6.32398 14.13141,14.12724" /><path
       inkscape:connector-curvature="0"
       id="path4164"
       style="fill:none;stroke:#000000;stroke-width:0.4;stroke-linecap:round;stroke-linejoin:round;stroke-miterlimit:10;stroke-dasharray:none;stroke-opacity:1"
       d="m 225.9,150.03141 c -7.8e-4,-7.80325 6.32398,-14.12988 14.12724,-14.13141" /><path
       inkscape:connector-curvature="0"
       id="path4168"
       style="fill:none;stroke:#000000;stroke-width:0.4;stroke-linecap:round;stroke-linejoin:round;stroke-miterlimit:10;stroke-dasharray:none;stroke-opacity:1"
       d="m 240.03141,476.1 c -7.80325,7.8e-4 -14.12988,-6.32398 -14.13141,-14.12724" /><path
       d="m 551.88,476.10001 -311.76,0"
       style="fill:none;stroke:#000000;stroke-width:0.4;stroke-linecap:round;stroke-linejoin:round;stroke-miterlimit:10;stroke-dasharray:none;stroke-opacity:1"
       id="path4170"
       inkscape:connector-curvature="0" /><path
       d="m 240.12,135.89999 311.76,0"
       style="fill:none;stroke:#000000;stroke-width:0.4;stroke-linecap:round;stroke-linejoin:round;stroke-miterlimit:10;stroke-dasharray:none;stroke-opacity:1"
       id="path4172"
       inkscape:connector-curvature="0" /><path
       d="m 516.41998,419.31 c 0,3.9266 -3.18304,7.1098 -7.10965,7.11001 -3.9266,1.9e-4 -7.10995,-3.18271 -7.11032,-7.10934 -3.9e-4,-3.92661 3.18234,-7.11011 7.10898,-7.11066 3.92661,-5.8e-4 7.11026,3.18201 7.11099,7.10861"
       style="fill:none;stroke:#000000;stroke-width:0.4;stroke-linecap:round;stroke-linejoin:round;stroke-miterlimit:10;stroke-dasharray:none;stroke-opacity:1"
       id="path4174"
       inkscape:connector-curvature="0" /><path
       d="m 459.72,419.31 c 0,3.9266 -3.18304,7.1098 -7.10965,7.11001 -3.92663,1.9e-4 -7.10998,-3.18271 -7.11035,-7.10934 -3.7e-4,-3.92661 3.18237,-7.11011 7.10898,-7.11066 3.9266,-5.8e-4 7.11026,3.18201 7.11102,7.10861"
       style="fill:none;stroke:#000000;stroke-width:0.4;stroke-linecap:round;stroke-linejoin:round;stroke-miterlimit:10;stroke-dasharray:none;stroke-opacity:1"
       id="path4176"
       inkscape:connector-curvature="0" /><path
       d="m 403.20001,419.31 c 0,3.9266 -3.18304,7.1098 -7.10968,7.11001 -3.9266,1.9e-4 -7.10995,-3.18271 -7.11032,-7.10934 -4e-4,-3.92661 3.18234,-7.11011 7.10898,-7.11066 3.9266,-5.8e-4 7.11026,3.18201 7.11102,7.10861"
       style="fill:none;stroke:#000000;stroke-width:0.4;stroke-linecap:round;stroke-linejoin:round;stroke-miterlimit:10;stroke-dasharray:none;stroke-opacity:1"
       id="path4178"
       inkscape:connector-curvature="0" /><path
       d="m 346.5,419.31 c 0,3.9266 -3.18304,7.1098 -7.10965,7.11001 -3.92664,1.9e-4 -7.10999,-3.18271 -7.11035,-7.10934 -3.7e-4,-3.92661 3.18237,-7.11011 7.10898,-7.11066 3.9266,-5.8e-4 7.11026,3.18201 7.11102,7.10861"
       style="fill:none;stroke:#000000;stroke-width:0.4;stroke-linecap:round;stroke-linejoin:round;stroke-miterlimit:10;stroke-dasharray:none;stroke-opacity:1"
       id="path4180"
       inkscape:connector-curvature="0" /><path
       d="m 289.79999,419.31 c 0,3.9266 -3.18305,7.1098 -7.10965,7.11001 -3.92661,1.9e-4 -7.10996,-3.18271 -7.11035,-7.10934 -3.7e-4,-3.92661 3.18237,-7.11011 7.10897,-7.11066 3.92664,-5.8e-4 7.1103,3.18201 7.11103,7.10861"
       style="fill:none;stroke:#000000;stroke-width:0.4;stroke-linecap:round;stroke-linejoin:round;stroke-miterlimit:10;stroke-dasharray:none;stroke-opacity:1"
       id="path4182"
       inkscape:connector-curvature="0" /><path
       d="m 516.41998,362.60999 c 0,3.92663 -3.18304,7.10983 -7.10965,7.11001 -3.9266,1.8e-4 -7.10995,-3.18271 -7.11032,-7.10931 -3.9e-4,-3.92661 3.18234,-7.11011 7.10898,-7.11069 3.92661,-5.8e-4 7.11026,3.18204 7.11099,7.10864"
       style="fill:none;stroke:#000000;stroke-width:0.4;stroke-linecap:round;stroke-linejoin:round;stroke-miterlimit:10;stroke-dasharray:none;stroke-opacity:1"
       id="path4184"
       inkscape:connector-curvature="0" /><path
       d="m 459.72,362.60999 c 0,3.92663 -3.18304,7.10983 -7.10965,7.11001 -3.92663,1.8e-4 -7.10998,-3.18271 -7.11035,-7.10931 -3.7e-4,-3.92661 3.18237,-7.11011 7.10898,-7.11069 3.9266,-5.8e-4 7.11026,3.18204 7.11102,7.10864"
       style="fill:none;stroke:#000000;stroke-width:0.4;stroke-linecap:round;stroke-linejoin:round;stroke-miterlimit:10;stroke-dasharray:none;stroke-opacity:1"
       id="path4186"
       inkscape:connector-curvature="0" /><path
       d="m 403.20001,362.60999 c 0,3.92663 -3.18304,7.10983 -7.10968,7.11001 -3.9266,1.8e-4 -7.10995,-3.18271 -7.11032,-7.10931 -4e-4,-3.92661 3.18234,-7.11011 7.10898,-7.11069 3.9266,-5.8e-4 7.11026,3.18204 7.11102,7.10864"
       style="fill:none;stroke:#000000;stroke-width:0.4;stroke-linecap:round;stroke-linejoin:round;stroke-miterlimit:10;stroke-dasharray:none;stroke-opacity:1"
       id="path4188"
       inkscape:connector-curvature="0" /><path
       d="m 346.5,362.60999 c 0,3.92663 -3.18304,7.10983 -7.10965,7.11001 -3.92664,1.8e-4 -7.10999,-3.18271 -7.11035,-7.10931 -3.7e-4,-3.92661 3.18237,-7.11011 7.10898,-7.11069 3.9266,-5.8e-4 7.11026,3.18204 7.11102,7.10864"
       style="fill:none;stroke:#000000;stroke-width:0.4;stroke-linecap:round;stroke-linejoin:round;stroke-miterlimit:10;stroke-dasharray:none;stroke-opacity:1"
       id="path4190"
       inkscape:connector-curvature="0" /><path
       d="m 289.79999,362.60999 c 0,3.92663 -3.18305,7.10983 -7.10965,7.11001 -3.92661,1.8e-4 -7.10996,-3.18271 -7.11035,-7.10931 -3.7e-4,-3.92661 3.18237,-7.11011 7.10897,-7.11069 3.92664,-5.8e-4 7.1103,3.18204 7.11103,7.10864"
       style="fill:none;stroke:#000000;stroke-width:0.4;stroke-linecap:round;stroke-linejoin:round;stroke-miterlimit:10;stroke-dasharray:none;stroke-opacity:1"
       id="path4192"
       inkscape:connector-curvature="0" /><path
       d="m 516.41998,306.09 c 0,3.9266 -3.18304,7.1098 -7.10965,7.11001 -3.9266,1.9e-4 -7.10995,-3.18271 -7.11032,-7.10934 -3.9e-4,-3.92661 3.18234,-7.11011 7.10898,-7.11066 3.92661,-5.8e-4 7.11026,3.18201 7.11099,7.10861"
       style="fill:none;stroke:#000000;stroke-width:0.4;stroke-linecap:round;stroke-linejoin:round;stroke-miterlimit:10;stroke-dasharray:none;stroke-opacity:1"
       id="path4194"
       inkscape:connector-curvature="0" /><path
       d="m 459.72,306.09 c 0,3.9266 -3.18304,7.1098 -7.10965,7.11001 -3.92663,1.9e-4 -7.10998,-3.18271 -7.11035,-7.10934 -3.7e-4,-3.92661 3.18237,-7.11011 7.10898,-7.11066 3.9266,-5.8e-4 7.11026,3.18201 7.11102,7.10861"
       style="fill:none;stroke:#000000;stroke-width:0.4;stroke-linecap:round;stroke-linejoin:round;stroke-miterlimit:10;stroke-dasharray:none;stroke-opacity:1"
       id="path4196"
       inkscape:connector-curvature="0" /><path
       d="m 403.20001,306.09 c 0,3.9266 -3.18304,7.1098 -7.10968,7.11001 -3.9266,1.9e-4 -7.10995,-3.18271 -7.11032,-7.10934 -4e-4,-3.92661 3.18234,-7.11011 7.10898,-7.11066 3.9266,-5.8e-4 7.11026,3.18201 7.11102,7.10861"
       style="fill:none;stroke:#000000;stroke-width:0.4;stroke-linecap:round;stroke-linejoin:round;stroke-miterlimit:10;stroke-dasharray:none;stroke-opacity:1"
       id="path4198"
       inkscape:connector-curvature="0" /><path
       d="m 346.5,306.09 c 0,3.9266 -3.18304,7.1098 -7.10965,7.11001 -3.92664,1.9e-4 -7.10999,-3.18271 -7.11035,-7.10934 -3.7e-4,-3.92661 3.18237,-7.11011 7.10898,-7.11066 3.9266,-5.8e-4 7.11026,3.18201 7.11102,7.10861"
       style="fill:none;stroke:#000000;stroke-width:0.4;stroke-linecap:round;stroke-linejoin:round;stroke-miterlimit:10;stroke-dasharray:none;stroke-opacity:1"
       id="path4200"
       inkscape:connector-curvature="0" /><path
       d="m 289.79999,306.09 c 0,3.9266 -3.18305,7.1098 -7.10965,7.11001 -3.92661,1.9e-4 -7.10996,-3.18271 -7.11035,-7.10934 -3.7e-4,-3.92661 3.18237,-7.11011 7.10897,-7.11066 3.92664,-5.8e-4 7.1103,3.18201 7.11103,7.10861"
       style="fill:none;stroke:#000000;stroke-width:0.4;stroke-linecap:round;stroke-linejoin:round;stroke-miterlimit:10;stroke-dasharray:none;stroke-opacity:1"
       id="path4202"
       inkscape:connector-curvature="0" /><path
       d="m 516.41998,249.39 c 0,3.9266 -3.18304,7.10982 -7.10965,7.11 -3.9266,1.8e-4 -7.10995,-3.18271 -7.11032,-7.10931 -3.9e-4,-3.92662 3.18234,-7.11013 7.10898,-7.11069 3.92661,-5.7e-4 7.11026,3.18202 7.11099,7.10864"
       style="fill:none;stroke:#000000;stroke-width:0.4;stroke-linecap:round;stroke-linejoin:round;stroke-miterlimit:10;stroke-dasharray:none;stroke-opacity:1"
       id="path4204"
       inkscape:connector-curvature="0" /><path
       d="m 459.72,249.39 c 0,3.9266 -3.18304,7.10982 -7.10965,7.11 -3.92663,1.8e-4 -7.10998,-3.18271 -7.11035,-7.10931 -3.7e-4,-3.92662 3.18237,-7.11013 7.10898,-7.11069 3.9266,-5.7e-4 7.11026,3.18202 7.11102,7.10864"
       style="fill:none;stroke:#000000;stroke-width:0.4;stroke-linecap:round;stroke-linejoin:round;stroke-miterlimit:10;stroke-dasharray:none;stroke-opacity:1"
       id="path4206"
       inkscape:connector-curvature="0" /><path
       d="m 403.20001,249.39 c 0,3.9266 -3.18304,7.10982 -7.10968,7.11 -3.9266,1.8e-4 -7.10995,-3.18271 -7.11032,-7.10931 -4e-4,-3.92662 3.18234,-7.11013 7.10898,-7.11069 3.9266,-5.7e-4 7.11026,3.18202 7.11102,7.10864"
       style="fill:none;stroke:#000000;stroke-width:0.4;stroke-linecap:round;stroke-linejoin:round;stroke-miterlimit:10;stroke-dasharray:none;stroke-opacity:1"
       id="path4208"
       inkscape:connector-curvature="0" /><path
       d="m 346.5,249.39 c 0,3.9266 -3.18304,7.10982 -7.10965,7.11 -3.92664,1.8e-4 -7.10999,-3.18271 -7.11035,-7.10931 -3.7e-4,-3.92662 3.18237,-7.11013 7.10898,-7.11069 3.9266,-5.7e-4 7.11026,3.18202 7.11102,7.10864"
       style="fill:none;stroke:#000000;stroke-width:0.4;stroke-linecap:round;stroke-linejoin:round;stroke-miterlimit:10;stroke-dasharray:none;stroke-opacity:1"
       id="path4210"
       inkscape:connector-curvature="0" /><path
       d="m 289.79999,249.39 c 0,3.9266 -3.18305,7.10982 -7.10965,7.11 -3.92661,1.8e-4 -7.10996,-3.18271 -7.11035,-7.10931 -3.7e-4,-3.92662 3.18237,-7.11013 7.10897,-7.11069 3.92664,-5.7e-4 7.1103,3.18202 7.11103,7.10864"
       style="fill:none;stroke:#000000;stroke-width:0.4;stroke-linecap:round;stroke-linejoin:round;stroke-miterlimit:10;stroke-dasharray:none;stroke-opacity:1"
       id="path4212"
       inkscape:connector-curvature="0" /><path
       d="m 516.41998,192.69 c 0,3.92661 -3.18304,7.1098 -7.10965,7.11 -3.9266,1.9e-4 -7.10995,-3.18271 -7.11032,-7.10931 -3.9e-4,-3.92662 3.18234,-7.11012 7.10898,-7.11069 3.92661,-5.6e-4 7.11026,3.18202 7.11099,7.10863"
       style="fill:none;stroke:#000000;stroke-width:0.4;stroke-linecap:round;stroke-linejoin:round;stroke-miterlimit:10;stroke-dasharray:none;stroke-opacity:1"
       id="path4214"
       inkscape:connector-curvature="0" /><path
       d="m 459.72,192.69 c 0,3.92661 -3.18304,7.1098 -7.10965,7.11 -3.92663,1.9e-4 -7.10998,-3.18271 -7.11035,-7.10931 -3.7e-4,-3.92662 3.18237,-7.11012 7.10898,-7.11069 3.9266,-5.6e-4 7.11026,3.18202 7.11102,7.10863"
       style="fill:none;stroke:#000000;stroke-width:0.4;stroke-linecap:round;stroke-linejoin:round;stroke-miterlimit:10;stroke-dasharray:none;stroke-opacity:1"
       id="path4216"
       inkscape:connector-curvature="0" /><path
       d="m 403.20001,192.69 c 0,3.92661 -3.18304,7.1098 -7.10968,7.11 -3.9266,1.9e-4 -7.10995,-3.18271 -7.11032,-7.10931 -4e-4,-3.92662 3.18234,-7.11012 7.10898,-7.11069 3.9266,-5.6e-4 7.11026,3.18202 7.11102,7.10863"
       style="fill:none;stroke:#000000;stroke-width:0.4;stroke-linecap:round;stroke-linejoin:round;stroke-miterlimit:10;stroke-dasharray:none;stroke-opacity:1"
       id="path4218"
       inkscape:connector-curvature="0" /><path
       d="m 346.5,192.69 c 0,3.92661 -3.18304,7.1098 -7.10965,7.11 -3.92664,1.9e-4 -7.10999,-3.18271 -7.11035,-7.10931 -3.7e-4,-3.92662 3.18237,-7.11012 7.10898,-7.11069 3.9266,-5.6e-4 7.11026,3.18202 7.11102,7.10863"
       style="fill:none;stroke:#000000;stroke-width:0.4;stroke-linecap:round;stroke-linejoin:round;stroke-miterlimit:10;stroke-dasharray:none;stroke-opacity:1"
       id="path4220"
       inkscape:connector-curvature="0" /><path
       d="m 289.79999,192.69 c 0,3.92661 -3.18305,7.1098 -7.10965,7.11 -3.92661,1.9e-4 -7.10996,-3.18271 -7.11035,-7.10931 -3.7e-4,-3.92662 3.18237,-7.11012 7.10897,-7.11069 3.92664,-5.6e-4 7.1103,3.18202 7.11103,7.10863"
       style="fill:none;stroke:#000000;stroke-width:0.4;stroke-linecap:round;stroke-linejoin:round;stroke-miterlimit:10;stroke-dasharray:none;stroke-opacity:1"
       id="path4222"
       inkscape:connector-curvature="0" /><path
       d="m 225.89999,461.88 0,-311.76"
       style="fill:none;stroke:#000000;stroke-width:0.4;stroke-linecap:round;stroke-linejoin:round;stroke-miterlimit:10;stroke-dasharray:none;stroke-opacity:1"
       id="path4224"
       inkscape:connector-curvature="0" /><path
       d="m 566.09998,150.12 0,311.76"
       style="fill:none;stroke:#000000;stroke-width:0.4;stroke-linecap:round;stroke-linejoin:round;stroke-miterlimit:10;stroke-dasharray:none;stroke-opacity:1"
       id="path4226"
       inkscape:connector-curvature="0" /></g></svg>